<svg width="180" height="180" viewBox="0 0 180 180" fill="none" xmlns="http://www.w3.org/2000/svg">
<path fill-rule="evenodd" clip-rule="evenodd" d="M0 0H180V180H0V0Z" fill="white"/>
<path fill-rule="evenodd" clip-rule="evenodd" d="M0 0H180V180H0V0Z" fill="#7942ED"/>
<path d="M151.059 62.9297C146.37 51.8858 137.011 50.8052 131.806 55.4283C126.601 60.0514 125.072 65.2935 129.066 73.9025C133.058 82.5125 134.483 98.2273 127.332 110.336C123.606 117.092 117.364 123.904 109.346 128.012C101.329 132.12 87.5838 135.282 73.6106 129.57C63.4262 125.409 57.9438 125.893 52.6892 131.41C47.4368 136.928 50.9391 146.491 61.3491 150.877C71.7569 155.263 78.5473 157.138 89.9383 157.148C101.925 157.138 113.311 154.322 123.344 148.329C133.378 142.336 141.797 134.174 147.509 124.64C153.224 115.107 157.26 100.951 156.891 90.0113C156.521 79.0715 155.747 73.9743 151.059 62.9297Z" fill="white"/>
<path d="M28.4726 117.539C33.1612 128.583 42.5202 129.664 47.7252 125.04C52.9302 120.417 54.4593 115.175 50.4653 106.566C46.4736 97.9561 45.0483 82.2412 52.1996 70.1325C55.9251 63.3771 62.1675 56.5648 70.1848 52.4569C78.202 48.3489 91.9452 45.1863 105.921 50.8981C116.105 55.0598 121.587 54.5758 126.842 49.0585C132.094 43.5412 128.592 33.9775 118.182 29.5917C107.774 25.206 100.984 23.33 89.593 23.3203C77.6066 23.33 66.2201 26.1464 56.1867 32.1394C46.1534 38.1326 37.7347 46.2949 32.0223 55.8288C26.3076 65.3618 22.2708 79.518 22.6407 90.4572C23.0105 101.397 23.7841 106.494 28.4726 117.539Z" fill="white"/>
</svg>
