<?xml version="1.0" encoding="UTF-8"?>
<svg width="1024px" height="1024px" viewBox="0 0 1024 1024" version="1.1" xmlns="http://www.w3.org/2000/svg" xmlns:xlink="http://www.w3.org/1999/xlink">
    <!-- Generator: Sketch 40.1 (33804) - http://www.bohemiancoding.com/sketch -->
    <title>icon</title>
    <desc>Created with Sketch.</desc>
    <defs>
        <linearGradient x1="-60.8795773%" y1="43.6570421%" x2="93.964839%" y2="39.6797234%" id="linearGradient-1">
            <stop stop-color="#FFFFFF" offset="0%"></stop>
            <stop stop-color="#000000" offset="100%"></stop>
        </linearGradient>
        <path d="M-2.40732815e-14,512.00501 L26.0024236,499.01001 L26.0024236,525.00001 L-2.40732815e-14,512.00501 Z M611.547558,826.729599 L414.503626,725.282628 C410.878807,732.919693 403.099143,738.200001 394.086786,738.200001 C381.611114,738.200001 371.497584,728.081636 371.497584,715.6 C371.497584,711.609768 372.531193,707.861062 374.345155,704.607262 L256.295894,643.830257 C252.396108,650.511238 245.152972,655 236.861931,655 C224.441461,655 214.372681,644.926407 214.372681,632.5 C214.372681,629.208307 215.079201,626.08171 216.348799,623.263718 L0.237464804,512 L217.988207,399.892242 C216.94555,397.298944 216.371726,394.466516 216.371726,391.5 C216.371726,379.073593 226.440506,369 238.860975,369 C246.823882,369 253.820188,373.140489 257.816345,379.386947 L376.151344,318.462831 C374.957942,315.716562 374.296234,312.685593 374.296234,309.5 C374.296234,297.073593 384.365014,287 396.785483,287 C404.969654,287 412.132759,291.373787 416.066981,297.912488 L613.173492,196.433297 C612.02069,193.719771 611.382913,190.734402 611.382913,187.6 C611.382913,175.118365 621.496443,165 633.972115,165 C642.126741,165 649.272147,169.323053 653.243621,175.803414 L994.237465,0.24463175 L994.237465,1023.75537 L651.60599,847.35346 C648.187104,855.488074 640.147095,861.200001 630.773632,861.200001 C618.29796,861.200001 608.184429,851.081636 608.184429,838.6 C608.184429,834.245873 609.415157,830.179336 611.547558,826.729599 Z" id="path-2"></path>
    </defs>
    <g id="Page-1" stroke="none" stroke-width="1" fill="none" fill-rule="evenodd">
        <g id="icon">
            <path d="M357.009067,0 L666.990933,0 C769.792,0 821.179733,0 876.5184,17.4933333 C936.9344,39.4837333 984.516267,87.0656 1006.50667,147.4816 C1024,202.811733 1024,254.216533 1024,357.009067 L1024,666.990933 C1024,769.792 1024,821.179733 1006.50667,876.5184 C984.516267,936.9344 936.9344,984.516267 876.5184,1006.49813 C821.179733,1024 769.792,1024 666.990933,1024 L357.009067,1024 C254.208,1024 202.811733,1024 147.4816,1006.49813 C87.0656,984.516267 39.4837333,936.9344 17.4933333,876.5184 C0,821.179733 0,769.792 0,666.990933 L0,357.009067 C0,254.216533 0,202.811733 17.4933333,147.4816 C39.4837333,87.0656 87.0656,39.4837333 147.4816,17.4933333 C202.811733,0 254.208,0 357.009067,0 L357.009067,0" id="Icon-Shape" fill="#1ABC9C"></path>
            <path d="M664,838.59609 C766.257116,766.138465 833,646.86355 833,512 C833,377.13645 766.257116,257.861535 664,185.40391 L664,166 L0,264.641162 L0,760.358838 L664,859 L664,838.59609 Z" id="Oval-6" fill-opacity="0.170000002" fill="url(#linearGradient-1)"></path>
            <g id="Oval-6-+-Oval-5-+-Oval-4-Mask" transform="translate(33.000000, 1.000000)">
                <mask id="mask-3" fill="white">
                    <use xlink:href="#path-2"></use>
                </mask>
                <g id="Mask"></g>
                <circle id="Oval-6" stroke="#FFFFFF" stroke-width="40" mask="url(#mask-3)" cx="400" cy="511" r="400"></circle>
                <circle id="Oval-5" stroke="#FFFFFF" stroke-width="40" mask="url(#mask-3)" cx="250" cy="511" r="250"></circle>
                <circle id="Oval-4" stroke="#FFFFFF" stroke-width="40" mask="url(#mask-3)" cx="150" cy="511" r="150"></circle>
            </g>
        </g>
    </g>
</svg>