<?xml version="1.0" encoding="UTF-8"?>
<svg width="35px" height="32px" viewBox="0 0 35 32" version="1.1" xmlns="http://www.w3.org/2000/svg" xmlns:xlink="http://www.w3.org/1999/xlink">
    <!-- Generator: Sketch 40.1 (33804) - http://www.bohemiancoding.com/sketch -->
    <title>linkedin</title>
    <desc>Created with Sketch.</desc>
    <defs></defs>
    <g id="Page-1" stroke="none" stroke-width="1" fill="none" fill-rule="evenodd">
        <g id="Desktop-HD-Copy-4" transform="translate(-634.000000, -141.000000)" fill="#494848">
            <path d="M634.501695,144.72752 C634.501695,143.652129 634.880546,142.762038 635.638259,142.057221 C636.395972,141.352403 637.385399,141 638.606568,141 C639.827737,141 640.806129,141.352403 641.541773,142.057221 C642.277417,142.762038 642.652589,143.652129 642.667302,144.72752 C642.682015,145.78838 642.310521,146.674837 641.552807,147.386921 C640.795094,148.099004 639.798311,148.455041 638.562429,148.455041 L638.518291,148.455041 C637.311835,148.455041 636.340799,148.099004 635.605155,147.386921 C634.869511,146.674837 634.501695,145.78838 634.501695,144.72752 Z M634.92101,173 L634.92101,151.39782 L642.203849,151.39782 L642.203849,173 L634.92101,173 Z M646.220445,173 C646.249871,167.201606 646.264583,162.500472 646.264583,158.896458 C646.264583,155.292443 646.257227,153.141693 646.242514,152.444142 L646.220445,151.39782 L653.481215,151.39782 L653.481215,154.536785 L653.437076,154.536785 C653.731334,154.071751 654.032943,153.664852 654.341914,153.316076 C654.650884,152.967301 655.066517,152.589466 655.588824,152.182561 C656.111131,151.775656 656.751132,151.459583 657.508845,151.234332 C658.266559,151.009082 659.108858,150.896458 660.03577,150.896458 C662.551672,150.896458 664.574663,151.721154 666.104802,153.370572 C667.634942,155.01999 668.4,157.435951 668.4,160.618529 L668.4,173 L661.13923,173 L661.13923,161.446866 C661.13923,159.920973 660.841299,158.725708 660.245427,157.861035 C659.649556,156.996363 658.71898,156.564033 657.453672,156.564033 C656.526761,156.564033 655.750668,156.814711 655.125371,157.316076 C654.500073,157.817441 654.032946,158.438688 653.723976,159.179837 C653.562134,159.615806 653.481215,160.204356 653.481215,160.945504 L653.481215,173 L646.220445,173 Z" id="linkedin"></path>
        </g>
    </g>
</svg>