<svg xmlns="http://www.w3.org/2000/svg" width="512" height="512" viewBox="0 0 512 512" style="background:#fff">
  <g fill="none" fill-rule="evenodd">
    <path stroke="#979797" stroke-linecap="square" d="M256.5,68.5 L258,70"/>
    <rect width="512" height="512" fill="#FE1863"/>
    <path fill="#FFF" d="M186.707905 157C186.707906 156.982472 186.707907 156.964944 186.707907 156.947415 186.702058 115.490092 183.24196 74.0327688 176.327606 32.5754455 172.124209 13.5323394 177.902246 2.86683059 193.661718.578919196 208.692795-2.24483708 217.728254 5.26134505 220.768096 23.0974656 228.782504 67.7694483 232.786194 112.384736 232.789338 157.000002 232.786194 201.615265 228.782504 246.230552 220.768096 290.902534 217.728254 308.738655 208.692795 316.244837 193.661718 313.421081 177.902246 311.133169 172.124209 300.467661 176.327606 281.424554 183.24196 239.967231 186.702058 198.509908 186.7079 157.052585 186.707907 157.035057 186.707906 157.017529 186.707905 157.000002zM79.0240944 120.004935C78.5590301 106.928563 84.8269356 99.4548691 97.7800666 97.583854 112.887305 94.7600977 121.967615 102.170138 125.02286 120.006258 127.686759 132.340861 129.019997 144.674325 129.019997 157.00665 129.019997 169.339415 127.686663 181.672177 125.019997 194.004935 121.967615 211.836204 112.887305 219.244228 97.7800666 216.42124 84.8264986 214.55067 78.5586072 207.078569 79.0241415 194.004935 81.6866633 181.686588 83.0199966 169.358262 83.0199966 157.019956 83.0199966 144.68165 81.6866633 132.34331 79.0199966 120.004935zM.0140422423 136.260501C-.450693015 123.184014 10.6936466 114 22.5055992 114 34.3179504 114 45.2045943 120.697664 46.0128076 136.261825L46.0099445 177C46.0118669 177.018114 46.0109127 177.036216 46.0099447 177.054307L46.0099445 177.260501 45.9982915 177.260501C45.0827019 192.638924 34.2518376 199.261825 22.5055992 199.261825 10.73137 199.261825-.37950355 190.136379.00994447566 177.12649L.00994447566 136.260501z" transform="translate(129 99)"/>
  </g>
</svg>
