<?xml version="1.0" encoding="UTF-8"?>
<svg width="42px" height="35px" viewBox="0 0 42 35" version="1.1" xmlns="http://www.w3.org/2000/svg" xmlns:xlink="http://www.w3.org/1999/xlink">
    <!-- Generator: Sketch 40.1 (33804) - http://www.bohemiancoding.com/sketch -->
    <title>Twitter</title>
    <desc>Created with Sketch.</desc>
    <defs></defs>
    <g id="Page-1" stroke="none" stroke-width="1" fill="none" fill-rule="evenodd">
        <g id="Desktop-HD-Copy-2" transform="translate(-702.000000, -892.000000)" fill="#00ACED">
            <g id="Group-5" transform="translate(168.000000, 871.000000)">
                <g id="follow" transform="translate(513.000000, 4.000000)">
                    <path d="M63,21.1433731 C61.4567706,21.8461538 59.7952104,22.3214157 58.0522979,22.5337667 C59.8321888,21.4416757 61.1979222,19.7100036 61.8413453,17.647165 C60.1748547,18.6583604 58.3333333,19.3940051 56.3660856,19.7883713 C54.7982039,18.0718671 52.5573164,17 50.0773023,17 C45.3218877,17 41.4638141,20.9563019 41.4638141,25.8353196 C41.4638141,26.5279884 41.5377707,27.2004334 41.6856841,27.8475984 C34.524212,27.4785121 28.1762634,23.9646082 23.9237542,18.6128566 C23.1817221,19.9223546 22.7577038,21.4416757 22.7577038,23.0595883 C22.7577038,26.1235103 24.2787463,28.8284579 26.5911252,30.4135067 C25.1810178,30.3705309 23.8497975,29.9685807 22.6862124,29.3113037 L22.6862124,29.4200072 C22.6862124,33.7024196 25.6568058,37.2744673 29.6011622,38.0834236 C28.8788519,38.2907187 28.1170981,38.3943662 27.330692,38.3943662 C26.7760169,38.3943662 26.2336679,38.3412784 25.7085755,38.2376309 C26.8055996,41.7464789 29.9857369,44.3022752 33.7575277,44.3705309 C30.8091213,46.741784 27.0915654,48.1549296 23.0559958,48.1549296 C22.360803,48.1549296 21.6730058,48.1144818 21,48.0335861 C24.8136996,50.5362947 29.344779,52 34.2086635,52 C50.0600458,52 58.7253038,38.5384615 58.7253038,26.8616829 C58.7253038,26.4774287 58.7179081,26.0931744 58.7031167,25.7165042 C60.3868639,24.4702059 61.848741,22.915493 63,21.1433731" id="Twitter"></path>
                </g>
            </g>
        </g>
    </g>
</svg>