<?xml version="1.0" encoding="UTF-8"?>
<svg width="39px" height="32px" viewBox="0 0 39 32" version="1.1" xmlns="http://www.w3.org/2000/svg" xmlns:xlink="http://www.w3.org/1999/xlink">
    <!-- Generator: Sketch 40.1 (33804) - http://www.bohemiancoding.com/sketch -->
    <title>twitter</title>
    <desc>Created with Sketch.</desc>
    <defs></defs>
    <g id="Page-1" stroke="none" stroke-width="1" fill="none" fill-rule="evenodd">
        <g id="Desktop-HD-Copy-4" transform="translate(-698.000000, -142.000000)" fill="#494848">
            <path d="M736.4,145.788227 C734.989047,146.430769 733.469907,146.865294 731.876387,147.059444 C733.503715,146.060961 734.752386,144.477718 735.340659,142.591694 C733.81701,143.516215 732.133333,144.188805 730.334707,144.549368 C728.901215,142.979993 726.852404,142 724.584962,142 C720.237154,142 716.709773,145.61719 716.709773,150.078007 C716.709773,150.711304 716.77739,151.326111 716.912625,151.917804 C710.364994,151.580354 704.561155,148.367642 700.673147,143.474612 C699.994717,144.671867 699.607043,146.060961 699.607043,147.540195 C699.607043,150.341495 700.997711,152.81459 703.111886,154.263778 C701.822645,154.224485 700.605529,153.856988 699.54168,153.256049 L699.54168,153.355435 C699.54168,157.270784 702.257651,160.536656 705.86392,161.276273 C705.203522,161.4658 704.507061,161.560563 703.788061,161.560563 C703.28093,161.560563 702.785068,161.512026 702.304983,161.417263 C703.307977,164.625352 706.215531,166.96208 709.664025,167.024485 C706.968339,169.192488 703.569431,170.484507 699.879768,170.484507 C699.244163,170.484507 698.61532,170.447526 698,170.373564 C701.486811,172.661755 705.629512,174 710.076492,174 C724.569185,174 732.491706,161.692308 732.491706,151.016396 C732.491706,150.665078 732.484945,150.313759 732.471421,149.969375 C734.010847,148.829902 735.34742,147.408451 736.4,145.788227" id="twitter"></path>
        </g>
    </g>
</svg>